G04 #@! TF.GenerationSoftware,KiCad,Pcbnew,10.0.6*
G04 #@! TF.CreationDate,2026-09-30T10:23:56-04:00*
G04 #@! TF.ProjectId,pi-box,70692d62-6f78-42e6-9b69-6361645f7063,rev?*
G04 #@! TF.SameCoordinates,Original*
G04 #@! TF.FileFunction,Legend,Top*
G04 #@! TF.FilePolarity,Positive*
%FSLAX46Y46*%
G04 Gerber Fmt 4.6, Leading zero omitted, Abs format (unit mm)*
G04 Created by KiCad (PCBNEW 10.0.6) date 2026-09-30 10:23:56*
%MOMM*%
%LPD*%
G01*
G04 APERTURE LIST*
%ADD10C,0.100000*%
%ADD11C,0.150000*%
%ADD12C,0.120000*%
%ADD13C,1.500000*%
%ADD14R,1.500000X1.500000*%
%ADD15C,3.200000*%
%ADD16C,1.800000*%
%ADD17R,1.800000X1.800000*%
%ADD18C,1.600000*%
%ADD19C,1.700000*%
%ADD20R,1.700000X1.700000*%
%ADD21C,2.700000*%
G04 APERTURE END LIST*
D10*
X85875312Y-77872419D02*
X85541979Y-77396228D01*
X85303884Y-77872419D02*
X85303884Y-76872419D01*
X85303884Y-76872419D02*
X85684836Y-76872419D01*
X85684836Y-76872419D02*
X85780074Y-76920038D01*
X85780074Y-76920038D02*
X85827693Y-76967657D01*
X85827693Y-76967657D02*
X85875312Y-77062895D01*
X85875312Y-77062895D02*
X85875312Y-77205752D01*
X85875312Y-77205752D02*
X85827693Y-77300990D01*
X85827693Y-77300990D02*
X85780074Y-77348609D01*
X85780074Y-77348609D02*
X85684836Y-77396228D01*
X85684836Y-77396228D02*
X85303884Y-77396228D01*
X86684836Y-77824800D02*
X86589598Y-77872419D01*
X86589598Y-77872419D02*
X86399122Y-77872419D01*
X86399122Y-77872419D02*
X86303884Y-77824800D01*
X86303884Y-77824800D02*
X86256265Y-77729561D01*
X86256265Y-77729561D02*
X86256265Y-77348609D01*
X86256265Y-77348609D02*
X86303884Y-77253371D01*
X86303884Y-77253371D02*
X86399122Y-77205752D01*
X86399122Y-77205752D02*
X86589598Y-77205752D01*
X86589598Y-77205752D02*
X86684836Y-77253371D01*
X86684836Y-77253371D02*
X86732455Y-77348609D01*
X86732455Y-77348609D02*
X86732455Y-77443847D01*
X86732455Y-77443847D02*
X86256265Y-77539085D01*
X87589598Y-77872419D02*
X87589598Y-77348609D01*
X87589598Y-77348609D02*
X87541979Y-77253371D01*
X87541979Y-77253371D02*
X87446741Y-77205752D01*
X87446741Y-77205752D02*
X87256265Y-77205752D01*
X87256265Y-77205752D02*
X87161027Y-77253371D01*
X87589598Y-77824800D02*
X87494360Y-77872419D01*
X87494360Y-77872419D02*
X87256265Y-77872419D01*
X87256265Y-77872419D02*
X87161027Y-77824800D01*
X87161027Y-77824800D02*
X87113408Y-77729561D01*
X87113408Y-77729561D02*
X87113408Y-77634323D01*
X87113408Y-77634323D02*
X87161027Y-77539085D01*
X87161027Y-77539085D02*
X87256265Y-77491466D01*
X87256265Y-77491466D02*
X87494360Y-77491466D01*
X87494360Y-77491466D02*
X87589598Y-77443847D01*
X88065789Y-77872419D02*
X88065789Y-77205752D01*
X88065789Y-77396228D02*
X88113408Y-77300990D01*
X88113408Y-77300990D02*
X88161027Y-77253371D01*
X88161027Y-77253371D02*
X88256265Y-77205752D01*
X88256265Y-77205752D02*
X88351503Y-77205752D01*
X85137217Y-59848609D02*
X84803884Y-59848609D01*
X84803884Y-60372419D02*
X84803884Y-59372419D01*
X84803884Y-59372419D02*
X85280074Y-59372419D01*
X85661027Y-60372419D02*
X85661027Y-59705752D01*
X85661027Y-59896228D02*
X85708646Y-59800990D01*
X85708646Y-59800990D02*
X85756265Y-59753371D01*
X85756265Y-59753371D02*
X85851503Y-59705752D01*
X85851503Y-59705752D02*
X85946741Y-59705752D01*
X86422932Y-60372419D02*
X86327694Y-60324800D01*
X86327694Y-60324800D02*
X86280075Y-60277180D01*
X86280075Y-60277180D02*
X86232456Y-60181942D01*
X86232456Y-60181942D02*
X86232456Y-59896228D01*
X86232456Y-59896228D02*
X86280075Y-59800990D01*
X86280075Y-59800990D02*
X86327694Y-59753371D01*
X86327694Y-59753371D02*
X86422932Y-59705752D01*
X86422932Y-59705752D02*
X86565789Y-59705752D01*
X86565789Y-59705752D02*
X86661027Y-59753371D01*
X86661027Y-59753371D02*
X86708646Y-59800990D01*
X86708646Y-59800990D02*
X86756265Y-59896228D01*
X86756265Y-59896228D02*
X86756265Y-60181942D01*
X86756265Y-60181942D02*
X86708646Y-60277180D01*
X86708646Y-60277180D02*
X86661027Y-60324800D01*
X86661027Y-60324800D02*
X86565789Y-60372419D01*
X86565789Y-60372419D02*
X86422932Y-60372419D01*
X87184837Y-59705752D02*
X87184837Y-60372419D01*
X87184837Y-59800990D02*
X87232456Y-59753371D01*
X87232456Y-59753371D02*
X87327694Y-59705752D01*
X87327694Y-59705752D02*
X87470551Y-59705752D01*
X87470551Y-59705752D02*
X87565789Y-59753371D01*
X87565789Y-59753371D02*
X87613408Y-59848609D01*
X87613408Y-59848609D02*
X87613408Y-60372419D01*
X87946742Y-59705752D02*
X88327694Y-59705752D01*
X88089599Y-59372419D02*
X88089599Y-60229561D01*
X88089599Y-60229561D02*
X88137218Y-60324800D01*
X88137218Y-60324800D02*
X88232456Y-60372419D01*
X88232456Y-60372419D02*
X88327694Y-60372419D01*
X39756265Y-97714856D02*
X39899122Y-97762475D01*
X39899122Y-97762475D02*
X40137217Y-97762475D01*
X40137217Y-97762475D02*
X40232455Y-97714856D01*
X40232455Y-97714856D02*
X40280074Y-97667236D01*
X40280074Y-97667236D02*
X40327693Y-97571998D01*
X40327693Y-97571998D02*
X40327693Y-97476760D01*
X40327693Y-97476760D02*
X40280074Y-97381522D01*
X40280074Y-97381522D02*
X40232455Y-97333903D01*
X40232455Y-97333903D02*
X40137217Y-97286284D01*
X40137217Y-97286284D02*
X39946741Y-97238665D01*
X39946741Y-97238665D02*
X39851503Y-97191046D01*
X39851503Y-97191046D02*
X39803884Y-97143427D01*
X39803884Y-97143427D02*
X39756265Y-97048189D01*
X39756265Y-97048189D02*
X39756265Y-96952951D01*
X39756265Y-96952951D02*
X39803884Y-96857713D01*
X39803884Y-96857713D02*
X39851503Y-96810094D01*
X39851503Y-96810094D02*
X39946741Y-96762475D01*
X39946741Y-96762475D02*
X40184836Y-96762475D01*
X40184836Y-96762475D02*
X40327693Y-96810094D01*
X40756265Y-97762475D02*
X40756265Y-97095808D01*
X40756265Y-96762475D02*
X40708646Y-96810094D01*
X40708646Y-96810094D02*
X40756265Y-96857713D01*
X40756265Y-96857713D02*
X40803884Y-96810094D01*
X40803884Y-96810094D02*
X40756265Y-96762475D01*
X40756265Y-96762475D02*
X40756265Y-96857713D01*
X41232455Y-97762475D02*
X41232455Y-97095808D01*
X41232455Y-97191046D02*
X41280074Y-97143427D01*
X41280074Y-97143427D02*
X41375312Y-97095808D01*
X41375312Y-97095808D02*
X41518169Y-97095808D01*
X41518169Y-97095808D02*
X41613407Y-97143427D01*
X41613407Y-97143427D02*
X41661026Y-97238665D01*
X41661026Y-97238665D02*
X41661026Y-97762475D01*
X41661026Y-97238665D02*
X41708645Y-97143427D01*
X41708645Y-97143427D02*
X41803883Y-97095808D01*
X41803883Y-97095808D02*
X41946740Y-97095808D01*
X41946740Y-97095808D02*
X42041979Y-97143427D01*
X42041979Y-97143427D02*
X42089598Y-97238665D01*
X42089598Y-97238665D02*
X42089598Y-97762475D01*
X43137216Y-97762475D02*
X42803883Y-97286284D01*
X42565788Y-97762475D02*
X42565788Y-96762475D01*
X42565788Y-96762475D02*
X42946740Y-96762475D01*
X42946740Y-96762475D02*
X43041978Y-96810094D01*
X43041978Y-96810094D02*
X43089597Y-96857713D01*
X43089597Y-96857713D02*
X43137216Y-96952951D01*
X43137216Y-96952951D02*
X43137216Y-97095808D01*
X43137216Y-97095808D02*
X43089597Y-97191046D01*
X43089597Y-97191046D02*
X43041978Y-97238665D01*
X43041978Y-97238665D02*
X42946740Y-97286284D01*
X42946740Y-97286284D02*
X42565788Y-97286284D01*
X43565788Y-97762475D02*
X43565788Y-97095808D01*
X43565788Y-96762475D02*
X43518169Y-96810094D01*
X43518169Y-96810094D02*
X43565788Y-96857713D01*
X43565788Y-96857713D02*
X43613407Y-96810094D01*
X43613407Y-96810094D02*
X43565788Y-96762475D01*
X43565788Y-96762475D02*
X43565788Y-96857713D01*
X44470549Y-97095808D02*
X44470549Y-97905332D01*
X44470549Y-97905332D02*
X44422930Y-98000570D01*
X44422930Y-98000570D02*
X44375311Y-98048189D01*
X44375311Y-98048189D02*
X44280073Y-98095808D01*
X44280073Y-98095808D02*
X44137216Y-98095808D01*
X44137216Y-98095808D02*
X44041978Y-98048189D01*
X44470549Y-97714856D02*
X44375311Y-97762475D01*
X44375311Y-97762475D02*
X44184835Y-97762475D01*
X44184835Y-97762475D02*
X44089597Y-97714856D01*
X44089597Y-97714856D02*
X44041978Y-97667236D01*
X44041978Y-97667236D02*
X43994359Y-97571998D01*
X43994359Y-97571998D02*
X43994359Y-97286284D01*
X43994359Y-97286284D02*
X44041978Y-97191046D01*
X44041978Y-97191046D02*
X44089597Y-97143427D01*
X44089597Y-97143427D02*
X44184835Y-97095808D01*
X44184835Y-97095808D02*
X44375311Y-97095808D01*
X44375311Y-97095808D02*
X44470549Y-97143427D01*
X45518168Y-97667236D02*
X45470549Y-97714856D01*
X45470549Y-97714856D02*
X45327692Y-97762475D01*
X45327692Y-97762475D02*
X45232454Y-97762475D01*
X45232454Y-97762475D02*
X45089597Y-97714856D01*
X45089597Y-97714856D02*
X44994359Y-97619617D01*
X44994359Y-97619617D02*
X44946740Y-97524379D01*
X44946740Y-97524379D02*
X44899121Y-97333903D01*
X44899121Y-97333903D02*
X44899121Y-97191046D01*
X44899121Y-97191046D02*
X44946740Y-97000570D01*
X44946740Y-97000570D02*
X44994359Y-96905332D01*
X44994359Y-96905332D02*
X45089597Y-96810094D01*
X45089597Y-96810094D02*
X45232454Y-96762475D01*
X45232454Y-96762475D02*
X45327692Y-96762475D01*
X45327692Y-96762475D02*
X45470549Y-96810094D01*
X45470549Y-96810094D02*
X45518168Y-96857713D01*
X46089597Y-97762475D02*
X45994359Y-97714856D01*
X45994359Y-97714856D02*
X45946740Y-97667236D01*
X45946740Y-97667236D02*
X45899121Y-97571998D01*
X45899121Y-97571998D02*
X45899121Y-97286284D01*
X45899121Y-97286284D02*
X45946740Y-97191046D01*
X45946740Y-97191046D02*
X45994359Y-97143427D01*
X45994359Y-97143427D02*
X46089597Y-97095808D01*
X46089597Y-97095808D02*
X46232454Y-97095808D01*
X46232454Y-97095808D02*
X46327692Y-97143427D01*
X46327692Y-97143427D02*
X46375311Y-97191046D01*
X46375311Y-97191046D02*
X46422930Y-97286284D01*
X46422930Y-97286284D02*
X46422930Y-97571998D01*
X46422930Y-97571998D02*
X46375311Y-97667236D01*
X46375311Y-97667236D02*
X46327692Y-97714856D01*
X46327692Y-97714856D02*
X46232454Y-97762475D01*
X46232454Y-97762475D02*
X46089597Y-97762475D01*
X46851502Y-97095808D02*
X46851502Y-97762475D01*
X46851502Y-97191046D02*
X46899121Y-97143427D01*
X46899121Y-97143427D02*
X46994359Y-97095808D01*
X46994359Y-97095808D02*
X47137216Y-97095808D01*
X47137216Y-97095808D02*
X47232454Y-97143427D01*
X47232454Y-97143427D02*
X47280073Y-97238665D01*
X47280073Y-97238665D02*
X47280073Y-97762475D01*
X47613407Y-97095808D02*
X47994359Y-97095808D01*
X47756264Y-96762475D02*
X47756264Y-97619617D01*
X47756264Y-97619617D02*
X47803883Y-97714856D01*
X47803883Y-97714856D02*
X47899121Y-97762475D01*
X47899121Y-97762475D02*
X47994359Y-97762475D01*
X48327693Y-97762475D02*
X48327693Y-97095808D01*
X48327693Y-97286284D02*
X48375312Y-97191046D01*
X48375312Y-97191046D02*
X48422931Y-97143427D01*
X48422931Y-97143427D02*
X48518169Y-97095808D01*
X48518169Y-97095808D02*
X48613407Y-97095808D01*
X49089598Y-97762475D02*
X48994360Y-97714856D01*
X48994360Y-97714856D02*
X48946741Y-97667236D01*
X48946741Y-97667236D02*
X48899122Y-97571998D01*
X48899122Y-97571998D02*
X48899122Y-97286284D01*
X48899122Y-97286284D02*
X48946741Y-97191046D01*
X48946741Y-97191046D02*
X48994360Y-97143427D01*
X48994360Y-97143427D02*
X49089598Y-97095808D01*
X49089598Y-97095808D02*
X49232455Y-97095808D01*
X49232455Y-97095808D02*
X49327693Y-97143427D01*
X49327693Y-97143427D02*
X49375312Y-97191046D01*
X49375312Y-97191046D02*
X49422931Y-97286284D01*
X49422931Y-97286284D02*
X49422931Y-97571998D01*
X49422931Y-97571998D02*
X49375312Y-97667236D01*
X49375312Y-97667236D02*
X49327693Y-97714856D01*
X49327693Y-97714856D02*
X49232455Y-97762475D01*
X49232455Y-97762475D02*
X49089598Y-97762475D01*
X49994360Y-97762475D02*
X49899122Y-97714856D01*
X49899122Y-97714856D02*
X49851503Y-97619617D01*
X49851503Y-97619617D02*
X49851503Y-96762475D01*
X50518170Y-97762475D02*
X50422932Y-97714856D01*
X50422932Y-97714856D02*
X50375313Y-97619617D01*
X50375313Y-97619617D02*
X50375313Y-96762475D01*
X51280075Y-97714856D02*
X51184837Y-97762475D01*
X51184837Y-97762475D02*
X50994361Y-97762475D01*
X50994361Y-97762475D02*
X50899123Y-97714856D01*
X50899123Y-97714856D02*
X50851504Y-97619617D01*
X50851504Y-97619617D02*
X50851504Y-97238665D01*
X50851504Y-97238665D02*
X50899123Y-97143427D01*
X50899123Y-97143427D02*
X50994361Y-97095808D01*
X50994361Y-97095808D02*
X51184837Y-97095808D01*
X51184837Y-97095808D02*
X51280075Y-97143427D01*
X51280075Y-97143427D02*
X51327694Y-97238665D01*
X51327694Y-97238665D02*
X51327694Y-97333903D01*
X51327694Y-97333903D02*
X50851504Y-97429141D01*
X51756266Y-97762475D02*
X51756266Y-97095808D01*
X51756266Y-97286284D02*
X51803885Y-97191046D01*
X51803885Y-97191046D02*
X51851504Y-97143427D01*
X51851504Y-97143427D02*
X51946742Y-97095808D01*
X51946742Y-97095808D02*
X52041980Y-97095808D01*
X53089600Y-97476760D02*
X53565790Y-97476760D01*
X52994362Y-97762475D02*
X53327695Y-96762475D01*
X53327695Y-96762475D02*
X53661028Y-97762475D01*
X54422933Y-97714856D02*
X54327695Y-97762475D01*
X54327695Y-97762475D02*
X54137219Y-97762475D01*
X54137219Y-97762475D02*
X54041981Y-97714856D01*
X54041981Y-97714856D02*
X53994362Y-97667236D01*
X53994362Y-97667236D02*
X53946743Y-97571998D01*
X53946743Y-97571998D02*
X53946743Y-97286284D01*
X53946743Y-97286284D02*
X53994362Y-97191046D01*
X53994362Y-97191046D02*
X54041981Y-97143427D01*
X54041981Y-97143427D02*
X54137219Y-97095808D01*
X54137219Y-97095808D02*
X54327695Y-97095808D01*
X54327695Y-97095808D02*
X54422933Y-97143427D01*
X55280076Y-97714856D02*
X55184838Y-97762475D01*
X55184838Y-97762475D02*
X54994362Y-97762475D01*
X54994362Y-97762475D02*
X54899124Y-97714856D01*
X54899124Y-97714856D02*
X54851505Y-97667236D01*
X54851505Y-97667236D02*
X54803886Y-97571998D01*
X54803886Y-97571998D02*
X54803886Y-97286284D01*
X54803886Y-97286284D02*
X54851505Y-97191046D01*
X54851505Y-97191046D02*
X54899124Y-97143427D01*
X54899124Y-97143427D02*
X54994362Y-97095808D01*
X54994362Y-97095808D02*
X55184838Y-97095808D01*
X55184838Y-97095808D02*
X55280076Y-97143427D01*
X56089600Y-97714856D02*
X55994362Y-97762475D01*
X55994362Y-97762475D02*
X55803886Y-97762475D01*
X55803886Y-97762475D02*
X55708648Y-97714856D01*
X55708648Y-97714856D02*
X55661029Y-97619617D01*
X55661029Y-97619617D02*
X55661029Y-97238665D01*
X55661029Y-97238665D02*
X55708648Y-97143427D01*
X55708648Y-97143427D02*
X55803886Y-97095808D01*
X55803886Y-97095808D02*
X55994362Y-97095808D01*
X55994362Y-97095808D02*
X56089600Y-97143427D01*
X56089600Y-97143427D02*
X56137219Y-97238665D01*
X56137219Y-97238665D02*
X56137219Y-97333903D01*
X56137219Y-97333903D02*
X55661029Y-97429141D01*
X56708648Y-97762475D02*
X56613410Y-97714856D01*
X56613410Y-97714856D02*
X56565791Y-97619617D01*
X56565791Y-97619617D02*
X56565791Y-96762475D01*
X57470553Y-97714856D02*
X57375315Y-97762475D01*
X57375315Y-97762475D02*
X57184839Y-97762475D01*
X57184839Y-97762475D02*
X57089601Y-97714856D01*
X57089601Y-97714856D02*
X57041982Y-97619617D01*
X57041982Y-97619617D02*
X57041982Y-97238665D01*
X57041982Y-97238665D02*
X57089601Y-97143427D01*
X57089601Y-97143427D02*
X57184839Y-97095808D01*
X57184839Y-97095808D02*
X57375315Y-97095808D01*
X57375315Y-97095808D02*
X57470553Y-97143427D01*
X57470553Y-97143427D02*
X57518172Y-97238665D01*
X57518172Y-97238665D02*
X57518172Y-97333903D01*
X57518172Y-97333903D02*
X57041982Y-97429141D01*
X57946744Y-97762475D02*
X57946744Y-97095808D01*
X57946744Y-97286284D02*
X57994363Y-97191046D01*
X57994363Y-97191046D02*
X58041982Y-97143427D01*
X58041982Y-97143427D02*
X58137220Y-97095808D01*
X58137220Y-97095808D02*
X58232458Y-97095808D01*
X58708649Y-97762475D02*
X58613411Y-97714856D01*
X58613411Y-97714856D02*
X58565792Y-97667236D01*
X58565792Y-97667236D02*
X58518173Y-97571998D01*
X58518173Y-97571998D02*
X58518173Y-97286284D01*
X58518173Y-97286284D02*
X58565792Y-97191046D01*
X58565792Y-97191046D02*
X58613411Y-97143427D01*
X58613411Y-97143427D02*
X58708649Y-97095808D01*
X58708649Y-97095808D02*
X58851506Y-97095808D01*
X58851506Y-97095808D02*
X58946744Y-97143427D01*
X58946744Y-97143427D02*
X58994363Y-97191046D01*
X58994363Y-97191046D02*
X59041982Y-97286284D01*
X59041982Y-97286284D02*
X59041982Y-97571998D01*
X59041982Y-97571998D02*
X58994363Y-97667236D01*
X58994363Y-97667236D02*
X58946744Y-97714856D01*
X58946744Y-97714856D02*
X58851506Y-97762475D01*
X58851506Y-97762475D02*
X58708649Y-97762475D01*
X59470554Y-97762475D02*
X59470554Y-97095808D01*
X59470554Y-97191046D02*
X59518173Y-97143427D01*
X59518173Y-97143427D02*
X59613411Y-97095808D01*
X59613411Y-97095808D02*
X59756268Y-97095808D01*
X59756268Y-97095808D02*
X59851506Y-97143427D01*
X59851506Y-97143427D02*
X59899125Y-97238665D01*
X59899125Y-97238665D02*
X59899125Y-97762475D01*
X59899125Y-97238665D02*
X59946744Y-97143427D01*
X59946744Y-97143427D02*
X60041982Y-97095808D01*
X60041982Y-97095808D02*
X60184839Y-97095808D01*
X60184839Y-97095808D02*
X60280078Y-97143427D01*
X60280078Y-97143427D02*
X60327697Y-97238665D01*
X60327697Y-97238665D02*
X60327697Y-97762475D01*
X61184839Y-97714856D02*
X61089601Y-97762475D01*
X61089601Y-97762475D02*
X60899125Y-97762475D01*
X60899125Y-97762475D02*
X60803887Y-97714856D01*
X60803887Y-97714856D02*
X60756268Y-97619617D01*
X60756268Y-97619617D02*
X60756268Y-97238665D01*
X60756268Y-97238665D02*
X60803887Y-97143427D01*
X60803887Y-97143427D02*
X60899125Y-97095808D01*
X60899125Y-97095808D02*
X61089601Y-97095808D01*
X61089601Y-97095808D02*
X61184839Y-97143427D01*
X61184839Y-97143427D02*
X61232458Y-97238665D01*
X61232458Y-97238665D02*
X61232458Y-97333903D01*
X61232458Y-97333903D02*
X60756268Y-97429141D01*
X61518173Y-97095808D02*
X61899125Y-97095808D01*
X61661030Y-96762475D02*
X61661030Y-97619617D01*
X61661030Y-97619617D02*
X61708649Y-97714856D01*
X61708649Y-97714856D02*
X61803887Y-97762475D01*
X61803887Y-97762475D02*
X61899125Y-97762475D01*
X62613411Y-97714856D02*
X62518173Y-97762475D01*
X62518173Y-97762475D02*
X62327697Y-97762475D01*
X62327697Y-97762475D02*
X62232459Y-97714856D01*
X62232459Y-97714856D02*
X62184840Y-97619617D01*
X62184840Y-97619617D02*
X62184840Y-97238665D01*
X62184840Y-97238665D02*
X62232459Y-97143427D01*
X62232459Y-97143427D02*
X62327697Y-97095808D01*
X62327697Y-97095808D02*
X62518173Y-97095808D01*
X62518173Y-97095808D02*
X62613411Y-97143427D01*
X62613411Y-97143427D02*
X62661030Y-97238665D01*
X62661030Y-97238665D02*
X62661030Y-97333903D01*
X62661030Y-97333903D02*
X62184840Y-97429141D01*
X63089602Y-97762475D02*
X63089602Y-97095808D01*
X63089602Y-97286284D02*
X63137221Y-97191046D01*
X63137221Y-97191046D02*
X63184840Y-97143427D01*
X63184840Y-97143427D02*
X63280078Y-97095808D01*
X63280078Y-97095808D02*
X63375316Y-97095808D01*
X64470555Y-97762475D02*
X64470555Y-96762475D01*
X64470555Y-96762475D02*
X64851507Y-96762475D01*
X64851507Y-96762475D02*
X64946745Y-96810094D01*
X64946745Y-96810094D02*
X64994364Y-96857713D01*
X64994364Y-96857713D02*
X65041983Y-96952951D01*
X65041983Y-96952951D02*
X65041983Y-97095808D01*
X65041983Y-97095808D02*
X64994364Y-97191046D01*
X64994364Y-97191046D02*
X64946745Y-97238665D01*
X64946745Y-97238665D02*
X64851507Y-97286284D01*
X64851507Y-97286284D02*
X64470555Y-97286284D01*
X65661031Y-96762475D02*
X65851507Y-96762475D01*
X65851507Y-96762475D02*
X65946745Y-96810094D01*
X65946745Y-96810094D02*
X66041983Y-96905332D01*
X66041983Y-96905332D02*
X66089602Y-97095808D01*
X66089602Y-97095808D02*
X66089602Y-97429141D01*
X66089602Y-97429141D02*
X66041983Y-97619617D01*
X66041983Y-97619617D02*
X65946745Y-97714856D01*
X65946745Y-97714856D02*
X65851507Y-97762475D01*
X65851507Y-97762475D02*
X65661031Y-97762475D01*
X65661031Y-97762475D02*
X65565793Y-97714856D01*
X65565793Y-97714856D02*
X65470555Y-97619617D01*
X65470555Y-97619617D02*
X65422936Y-97429141D01*
X65422936Y-97429141D02*
X65422936Y-97095808D01*
X65422936Y-97095808D02*
X65470555Y-96905332D01*
X65470555Y-96905332D02*
X65565793Y-96810094D01*
X65565793Y-96810094D02*
X65661031Y-96762475D01*
X66518174Y-97762475D02*
X66518174Y-96762475D01*
X66518174Y-96762475D02*
X66756269Y-96762475D01*
X66756269Y-96762475D02*
X66899126Y-96810094D01*
X66899126Y-96810094D02*
X66994364Y-96905332D01*
X66994364Y-96905332D02*
X67041983Y-97000570D01*
X67041983Y-97000570D02*
X67089602Y-97191046D01*
X67089602Y-97191046D02*
X67089602Y-97333903D01*
X67089602Y-97333903D02*
X67041983Y-97524379D01*
X67041983Y-97524379D02*
X66994364Y-97619617D01*
X66994364Y-97619617D02*
X66899126Y-97714856D01*
X66899126Y-97714856D02*
X66756269Y-97762475D01*
X66756269Y-97762475D02*
X66518174Y-97762475D01*
X68613412Y-97238665D02*
X68756269Y-97286284D01*
X68756269Y-97286284D02*
X68803888Y-97333903D01*
X68803888Y-97333903D02*
X68851507Y-97429141D01*
X68851507Y-97429141D02*
X68851507Y-97571998D01*
X68851507Y-97571998D02*
X68803888Y-97667236D01*
X68803888Y-97667236D02*
X68756269Y-97714856D01*
X68756269Y-97714856D02*
X68661031Y-97762475D01*
X68661031Y-97762475D02*
X68280079Y-97762475D01*
X68280079Y-97762475D02*
X68280079Y-96762475D01*
X68280079Y-96762475D02*
X68613412Y-96762475D01*
X68613412Y-96762475D02*
X68708650Y-96810094D01*
X68708650Y-96810094D02*
X68756269Y-96857713D01*
X68756269Y-96857713D02*
X68803888Y-96952951D01*
X68803888Y-96952951D02*
X68803888Y-97048189D01*
X68803888Y-97048189D02*
X68756269Y-97143427D01*
X68756269Y-97143427D02*
X68708650Y-97191046D01*
X68708650Y-97191046D02*
X68613412Y-97238665D01*
X68613412Y-97238665D02*
X68280079Y-97238665D01*
X69280079Y-97762475D02*
X69280079Y-97095808D01*
X69280079Y-97286284D02*
X69327698Y-97191046D01*
X69327698Y-97191046D02*
X69375317Y-97143427D01*
X69375317Y-97143427D02*
X69470555Y-97095808D01*
X69470555Y-97095808D02*
X69565793Y-97095808D01*
X70280079Y-97714856D02*
X70184841Y-97762475D01*
X70184841Y-97762475D02*
X69994365Y-97762475D01*
X69994365Y-97762475D02*
X69899127Y-97714856D01*
X69899127Y-97714856D02*
X69851508Y-97619617D01*
X69851508Y-97619617D02*
X69851508Y-97238665D01*
X69851508Y-97238665D02*
X69899127Y-97143427D01*
X69899127Y-97143427D02*
X69994365Y-97095808D01*
X69994365Y-97095808D02*
X70184841Y-97095808D01*
X70184841Y-97095808D02*
X70280079Y-97143427D01*
X70280079Y-97143427D02*
X70327698Y-97238665D01*
X70327698Y-97238665D02*
X70327698Y-97333903D01*
X70327698Y-97333903D02*
X69851508Y-97429141D01*
X71184841Y-97762475D02*
X71184841Y-97238665D01*
X71184841Y-97238665D02*
X71137222Y-97143427D01*
X71137222Y-97143427D02*
X71041984Y-97095808D01*
X71041984Y-97095808D02*
X70851508Y-97095808D01*
X70851508Y-97095808D02*
X70756270Y-97143427D01*
X71184841Y-97714856D02*
X71089603Y-97762475D01*
X71089603Y-97762475D02*
X70851508Y-97762475D01*
X70851508Y-97762475D02*
X70756270Y-97714856D01*
X70756270Y-97714856D02*
X70708651Y-97619617D01*
X70708651Y-97619617D02*
X70708651Y-97524379D01*
X70708651Y-97524379D02*
X70756270Y-97429141D01*
X70756270Y-97429141D02*
X70851508Y-97381522D01*
X70851508Y-97381522D02*
X71089603Y-97381522D01*
X71089603Y-97381522D02*
X71184841Y-97333903D01*
X71661032Y-97762475D02*
X71661032Y-96762475D01*
X71756270Y-97381522D02*
X72041984Y-97762475D01*
X72041984Y-97095808D02*
X71661032Y-97476760D01*
X72613413Y-97762475D02*
X72518175Y-97714856D01*
X72518175Y-97714856D02*
X72470556Y-97667236D01*
X72470556Y-97667236D02*
X72422937Y-97571998D01*
X72422937Y-97571998D02*
X72422937Y-97286284D01*
X72422937Y-97286284D02*
X72470556Y-97191046D01*
X72470556Y-97191046D02*
X72518175Y-97143427D01*
X72518175Y-97143427D02*
X72613413Y-97095808D01*
X72613413Y-97095808D02*
X72756270Y-97095808D01*
X72756270Y-97095808D02*
X72851508Y-97143427D01*
X72851508Y-97143427D02*
X72899127Y-97191046D01*
X72899127Y-97191046D02*
X72946746Y-97286284D01*
X72946746Y-97286284D02*
X72946746Y-97571998D01*
X72946746Y-97571998D02*
X72899127Y-97667236D01*
X72899127Y-97667236D02*
X72851508Y-97714856D01*
X72851508Y-97714856D02*
X72756270Y-97762475D01*
X72756270Y-97762475D02*
X72613413Y-97762475D01*
X73803889Y-97095808D02*
X73803889Y-97762475D01*
X73375318Y-97095808D02*
X73375318Y-97619617D01*
X73375318Y-97619617D02*
X73422937Y-97714856D01*
X73422937Y-97714856D02*
X73518175Y-97762475D01*
X73518175Y-97762475D02*
X73661032Y-97762475D01*
X73661032Y-97762475D02*
X73756270Y-97714856D01*
X73756270Y-97714856D02*
X73803889Y-97667236D01*
X74137223Y-97095808D02*
X74518175Y-97095808D01*
X74280080Y-96762475D02*
X74280080Y-97619617D01*
X74280080Y-97619617D02*
X74327699Y-97714856D01*
X74327699Y-97714856D02*
X74422937Y-97762475D01*
X74422937Y-97762475D02*
X74518175Y-97762475D01*
X39803884Y-99372419D02*
X39803884Y-98372419D01*
X39803884Y-98372419D02*
X40041979Y-98372419D01*
X40041979Y-98372419D02*
X40184836Y-98420038D01*
X40184836Y-98420038D02*
X40280074Y-98515276D01*
X40280074Y-98515276D02*
X40327693Y-98610514D01*
X40327693Y-98610514D02*
X40375312Y-98800990D01*
X40375312Y-98800990D02*
X40375312Y-98943847D01*
X40375312Y-98943847D02*
X40327693Y-99134323D01*
X40327693Y-99134323D02*
X40280074Y-99229561D01*
X40280074Y-99229561D02*
X40184836Y-99324800D01*
X40184836Y-99324800D02*
X40041979Y-99372419D01*
X40041979Y-99372419D02*
X39803884Y-99372419D01*
X41232455Y-98705752D02*
X41232455Y-99372419D01*
X40803884Y-98705752D02*
X40803884Y-99229561D01*
X40803884Y-99229561D02*
X40851503Y-99324800D01*
X40851503Y-99324800D02*
X40946741Y-99372419D01*
X40946741Y-99372419D02*
X41089598Y-99372419D01*
X41089598Y-99372419D02*
X41184836Y-99324800D01*
X41184836Y-99324800D02*
X41232455Y-99277180D01*
X42137217Y-99372419D02*
X42137217Y-98848609D01*
X42137217Y-98848609D02*
X42089598Y-98753371D01*
X42089598Y-98753371D02*
X41994360Y-98705752D01*
X41994360Y-98705752D02*
X41803884Y-98705752D01*
X41803884Y-98705752D02*
X41708646Y-98753371D01*
X42137217Y-99324800D02*
X42041979Y-99372419D01*
X42041979Y-99372419D02*
X41803884Y-99372419D01*
X41803884Y-99372419D02*
X41708646Y-99324800D01*
X41708646Y-99324800D02*
X41661027Y-99229561D01*
X41661027Y-99229561D02*
X41661027Y-99134323D01*
X41661027Y-99134323D02*
X41708646Y-99039085D01*
X41708646Y-99039085D02*
X41803884Y-98991466D01*
X41803884Y-98991466D02*
X42041979Y-98991466D01*
X42041979Y-98991466D02*
X42137217Y-98943847D01*
X42756265Y-99372419D02*
X42661027Y-99324800D01*
X42661027Y-99324800D02*
X42613408Y-99229561D01*
X42613408Y-99229561D02*
X42613408Y-98372419D01*
X44470551Y-99372419D02*
X44137218Y-98896228D01*
X43899123Y-99372419D02*
X43899123Y-98372419D01*
X43899123Y-98372419D02*
X44280075Y-98372419D01*
X44280075Y-98372419D02*
X44375313Y-98420038D01*
X44375313Y-98420038D02*
X44422932Y-98467657D01*
X44422932Y-98467657D02*
X44470551Y-98562895D01*
X44470551Y-98562895D02*
X44470551Y-98705752D01*
X44470551Y-98705752D02*
X44422932Y-98800990D01*
X44422932Y-98800990D02*
X44375313Y-98848609D01*
X44375313Y-98848609D02*
X44280075Y-98896228D01*
X44280075Y-98896228D02*
X43899123Y-98896228D01*
X45184837Y-98372419D02*
X45184837Y-99086704D01*
X45184837Y-99086704D02*
X45137218Y-99229561D01*
X45137218Y-99229561D02*
X45041980Y-99324800D01*
X45041980Y-99324800D02*
X44899123Y-99372419D01*
X44899123Y-99372419D02*
X44803885Y-99372419D01*
X46089599Y-98705752D02*
X46089599Y-99372419D01*
X45851504Y-98324800D02*
X45613409Y-99039085D01*
X45613409Y-99039085D02*
X46232456Y-99039085D01*
X47089599Y-98372419D02*
X46613409Y-98372419D01*
X46613409Y-98372419D02*
X46565790Y-98848609D01*
X46565790Y-98848609D02*
X46613409Y-98800990D01*
X46613409Y-98800990D02*
X46708647Y-98753371D01*
X46708647Y-98753371D02*
X46946742Y-98753371D01*
X46946742Y-98753371D02*
X47041980Y-98800990D01*
X47041980Y-98800990D02*
X47089599Y-98848609D01*
X47089599Y-98848609D02*
X47137218Y-98943847D01*
X47137218Y-98943847D02*
X47137218Y-99181942D01*
X47137218Y-99181942D02*
X47089599Y-99277180D01*
X47089599Y-99277180D02*
X47041980Y-99324800D01*
X47041980Y-99324800D02*
X46946742Y-99372419D01*
X46946742Y-99372419D02*
X46708647Y-99372419D01*
X46708647Y-99372419D02*
X46613409Y-99324800D01*
X46613409Y-99324800D02*
X46565790Y-99277180D01*
X48470552Y-98943847D02*
X48422933Y-98991466D01*
X48422933Y-98991466D02*
X48470552Y-99039085D01*
X48470552Y-99039085D02*
X48518171Y-98991466D01*
X48518171Y-98991466D02*
X48470552Y-98943847D01*
X48470552Y-98943847D02*
X48470552Y-99039085D01*
X49851505Y-99372419D02*
X49851505Y-98372419D01*
X50280076Y-98467657D02*
X50327695Y-98420038D01*
X50327695Y-98420038D02*
X50422933Y-98372419D01*
X50422933Y-98372419D02*
X50661028Y-98372419D01*
X50661028Y-98372419D02*
X50756266Y-98420038D01*
X50756266Y-98420038D02*
X50803885Y-98467657D01*
X50803885Y-98467657D02*
X50851504Y-98562895D01*
X50851504Y-98562895D02*
X50851504Y-98658133D01*
X50851504Y-98658133D02*
X50803885Y-98800990D01*
X50803885Y-98800990D02*
X50232457Y-99372419D01*
X50232457Y-99372419D02*
X50851504Y-99372419D01*
X51851504Y-99277180D02*
X51803885Y-99324800D01*
X51803885Y-99324800D02*
X51661028Y-99372419D01*
X51661028Y-99372419D02*
X51565790Y-99372419D01*
X51565790Y-99372419D02*
X51422933Y-99324800D01*
X51422933Y-99324800D02*
X51327695Y-99229561D01*
X51327695Y-99229561D02*
X51280076Y-99134323D01*
X51280076Y-99134323D02*
X51232457Y-98943847D01*
X51232457Y-98943847D02*
X51232457Y-98800990D01*
X51232457Y-98800990D02*
X51280076Y-98610514D01*
X51280076Y-98610514D02*
X51327695Y-98515276D01*
X51327695Y-98515276D02*
X51422933Y-98420038D01*
X51422933Y-98420038D02*
X51565790Y-98372419D01*
X51565790Y-98372419D02*
X51661028Y-98372419D01*
X51661028Y-98372419D02*
X51803885Y-98420038D01*
X51803885Y-98420038D02*
X51851504Y-98467657D01*
X53041981Y-98991466D02*
X53803886Y-98991466D01*
X53422933Y-99372419D02*
X53422933Y-98610514D01*
X55041981Y-99372419D02*
X55041981Y-98372419D01*
X55518171Y-99372419D02*
X55518171Y-98372419D01*
X55518171Y-98372419D02*
X56089599Y-99372419D01*
X56089599Y-99372419D02*
X56089599Y-98372419D01*
X56422933Y-98372419D02*
X56994361Y-98372419D01*
X56708647Y-99372419D02*
X56708647Y-98372419D01*
X58232457Y-99372419D02*
X58137219Y-99324800D01*
X58137219Y-99324800D02*
X58089600Y-99277180D01*
X58089600Y-99277180D02*
X58041981Y-99181942D01*
X58041981Y-99181942D02*
X58041981Y-98896228D01*
X58041981Y-98896228D02*
X58089600Y-98800990D01*
X58089600Y-98800990D02*
X58137219Y-98753371D01*
X58137219Y-98753371D02*
X58232457Y-98705752D01*
X58232457Y-98705752D02*
X58375314Y-98705752D01*
X58375314Y-98705752D02*
X58470552Y-98753371D01*
X58470552Y-98753371D02*
X58518171Y-98800990D01*
X58518171Y-98800990D02*
X58565790Y-98896228D01*
X58565790Y-98896228D02*
X58565790Y-99181942D01*
X58565790Y-99181942D02*
X58518171Y-99277180D01*
X58518171Y-99277180D02*
X58470552Y-99324800D01*
X58470552Y-99324800D02*
X58375314Y-99372419D01*
X58375314Y-99372419D02*
X58232457Y-99372419D01*
X58899124Y-98705752D02*
X59137219Y-99372419D01*
X59137219Y-99372419D02*
X59375314Y-98705752D01*
X60137219Y-99324800D02*
X60041981Y-99372419D01*
X60041981Y-99372419D02*
X59851505Y-99372419D01*
X59851505Y-99372419D02*
X59756267Y-99324800D01*
X59756267Y-99324800D02*
X59708648Y-99229561D01*
X59708648Y-99229561D02*
X59708648Y-98848609D01*
X59708648Y-98848609D02*
X59756267Y-98753371D01*
X59756267Y-98753371D02*
X59851505Y-98705752D01*
X59851505Y-98705752D02*
X60041981Y-98705752D01*
X60041981Y-98705752D02*
X60137219Y-98753371D01*
X60137219Y-98753371D02*
X60184838Y-98848609D01*
X60184838Y-98848609D02*
X60184838Y-98943847D01*
X60184838Y-98943847D02*
X59708648Y-99039085D01*
X60613410Y-99372419D02*
X60613410Y-98705752D01*
X60613410Y-98896228D02*
X60661029Y-98800990D01*
X60661029Y-98800990D02*
X60708648Y-98753371D01*
X60708648Y-98753371D02*
X60803886Y-98705752D01*
X60803886Y-98705752D02*
X60899124Y-98705752D01*
X62565791Y-99277180D02*
X62518172Y-99324800D01*
X62518172Y-99324800D02*
X62375315Y-99372419D01*
X62375315Y-99372419D02*
X62280077Y-99372419D01*
X62280077Y-99372419D02*
X62137220Y-99324800D01*
X62137220Y-99324800D02*
X62041982Y-99229561D01*
X62041982Y-99229561D02*
X61994363Y-99134323D01*
X61994363Y-99134323D02*
X61946744Y-98943847D01*
X61946744Y-98943847D02*
X61946744Y-98800990D01*
X61946744Y-98800990D02*
X61994363Y-98610514D01*
X61994363Y-98610514D02*
X62041982Y-98515276D01*
X62041982Y-98515276D02*
X62137220Y-98420038D01*
X62137220Y-98420038D02*
X62280077Y-98372419D01*
X62280077Y-98372419D02*
X62375315Y-98372419D01*
X62375315Y-98372419D02*
X62518172Y-98420038D01*
X62518172Y-98420038D02*
X62565791Y-98467657D01*
X63422934Y-99372419D02*
X63422934Y-98848609D01*
X63422934Y-98848609D02*
X63375315Y-98753371D01*
X63375315Y-98753371D02*
X63280077Y-98705752D01*
X63280077Y-98705752D02*
X63089601Y-98705752D01*
X63089601Y-98705752D02*
X62994363Y-98753371D01*
X63422934Y-99324800D02*
X63327696Y-99372419D01*
X63327696Y-99372419D02*
X63089601Y-99372419D01*
X63089601Y-99372419D02*
X62994363Y-99324800D01*
X62994363Y-99324800D02*
X62946744Y-99229561D01*
X62946744Y-99229561D02*
X62946744Y-99134323D01*
X62946744Y-99134323D02*
X62994363Y-99039085D01*
X62994363Y-99039085D02*
X63089601Y-98991466D01*
X63089601Y-98991466D02*
X63327696Y-98991466D01*
X63327696Y-98991466D02*
X63422934Y-98943847D01*
X63756268Y-98705752D02*
X64137220Y-98705752D01*
X63899125Y-98372419D02*
X63899125Y-99229561D01*
X63899125Y-99229561D02*
X63946744Y-99324800D01*
X63946744Y-99324800D02*
X64041982Y-99372419D01*
X64041982Y-99372419D02*
X64137220Y-99372419D01*
X64946744Y-98372419D02*
X64470554Y-98372419D01*
X64470554Y-98372419D02*
X64422935Y-98848609D01*
X64422935Y-98848609D02*
X64470554Y-98800990D01*
X64470554Y-98800990D02*
X64565792Y-98753371D01*
X64565792Y-98753371D02*
X64803887Y-98753371D01*
X64803887Y-98753371D02*
X64899125Y-98800990D01*
X64899125Y-98800990D02*
X64946744Y-98848609D01*
X64946744Y-98848609D02*
X64994363Y-98943847D01*
X64994363Y-98943847D02*
X64994363Y-99181942D01*
X64994363Y-99181942D02*
X64946744Y-99277180D01*
X64946744Y-99277180D02*
X64899125Y-99324800D01*
X64899125Y-99324800D02*
X64803887Y-99372419D01*
X64803887Y-99372419D02*
X64565792Y-99372419D01*
X64565792Y-99372419D02*
X64470554Y-99324800D01*
X64470554Y-99324800D02*
X64422935Y-99277180D01*
X66470554Y-99753371D02*
X66422935Y-99705752D01*
X66422935Y-99705752D02*
X66327697Y-99562895D01*
X66327697Y-99562895D02*
X66280078Y-99467657D01*
X66280078Y-99467657D02*
X66232459Y-99324800D01*
X66232459Y-99324800D02*
X66184840Y-99086704D01*
X66184840Y-99086704D02*
X66184840Y-98896228D01*
X66184840Y-98896228D02*
X66232459Y-98658133D01*
X66232459Y-98658133D02*
X66280078Y-98515276D01*
X66280078Y-98515276D02*
X66327697Y-98420038D01*
X66327697Y-98420038D02*
X66422935Y-98277180D01*
X66422935Y-98277180D02*
X66470554Y-98229561D01*
X67422935Y-99372419D02*
X67089602Y-98896228D01*
X66851507Y-99372419D02*
X66851507Y-98372419D01*
X66851507Y-98372419D02*
X67232459Y-98372419D01*
X67232459Y-98372419D02*
X67327697Y-98420038D01*
X67327697Y-98420038D02*
X67375316Y-98467657D01*
X67375316Y-98467657D02*
X67422935Y-98562895D01*
X67422935Y-98562895D02*
X67422935Y-98705752D01*
X67422935Y-98705752D02*
X67375316Y-98800990D01*
X67375316Y-98800990D02*
X67327697Y-98848609D01*
X67327697Y-98848609D02*
X67232459Y-98896228D01*
X67232459Y-98896228D02*
X66851507Y-98896228D01*
X68232459Y-99324800D02*
X68137221Y-99372419D01*
X68137221Y-99372419D02*
X67946745Y-99372419D01*
X67946745Y-99372419D02*
X67851507Y-99324800D01*
X67851507Y-99324800D02*
X67803888Y-99229561D01*
X67803888Y-99229561D02*
X67803888Y-98848609D01*
X67803888Y-98848609D02*
X67851507Y-98753371D01*
X67851507Y-98753371D02*
X67946745Y-98705752D01*
X67946745Y-98705752D02*
X68137221Y-98705752D01*
X68137221Y-98705752D02*
X68232459Y-98753371D01*
X68232459Y-98753371D02*
X68280078Y-98848609D01*
X68280078Y-98848609D02*
X68280078Y-98943847D01*
X68280078Y-98943847D02*
X67803888Y-99039085D01*
X68613412Y-98705752D02*
X68851507Y-99372419D01*
X68851507Y-99372419D02*
X69089602Y-98705752D01*
X70756269Y-99372419D02*
X70184841Y-99372419D01*
X70470555Y-99372419D02*
X70470555Y-98372419D01*
X70470555Y-98372419D02*
X70375317Y-98515276D01*
X70375317Y-98515276D02*
X70280079Y-98610514D01*
X70280079Y-98610514D02*
X70184841Y-98658133D01*
X71089603Y-99753371D02*
X71137222Y-99705752D01*
X71137222Y-99705752D02*
X71232460Y-99562895D01*
X71232460Y-99562895D02*
X71280079Y-99467657D01*
X71280079Y-99467657D02*
X71327698Y-99324800D01*
X71327698Y-99324800D02*
X71375317Y-99086704D01*
X71375317Y-99086704D02*
X71375317Y-98896228D01*
X71375317Y-98896228D02*
X71327698Y-98658133D01*
X71327698Y-98658133D02*
X71280079Y-98515276D01*
X71280079Y-98515276D02*
X71232460Y-98420038D01*
X71232460Y-98420038D02*
X71137222Y-98277180D01*
X71137222Y-98277180D02*
X71089603Y-98229561D01*
D11*
X68354819Y-69170833D02*
X69069104Y-69170833D01*
X69069104Y-69170833D02*
X69211961Y-69218452D01*
X69211961Y-69218452D02*
X69307200Y-69313690D01*
X69307200Y-69313690D02*
X69354819Y-69456547D01*
X69354819Y-69456547D02*
X69354819Y-69551785D01*
X68450057Y-68742261D02*
X68402438Y-68694642D01*
X68402438Y-68694642D02*
X68354819Y-68599404D01*
X68354819Y-68599404D02*
X68354819Y-68361309D01*
X68354819Y-68361309D02*
X68402438Y-68266071D01*
X68402438Y-68266071D02*
X68450057Y-68218452D01*
X68450057Y-68218452D02*
X68545295Y-68170833D01*
X68545295Y-68170833D02*
X68640533Y-68170833D01*
X68640533Y-68170833D02*
X68783390Y-68218452D01*
X68783390Y-68218452D02*
X69354819Y-68789880D01*
X69354819Y-68789880D02*
X69354819Y-68170833D01*
X68354819Y-86670833D02*
X69069104Y-86670833D01*
X69069104Y-86670833D02*
X69211961Y-86718452D01*
X69211961Y-86718452D02*
X69307200Y-86813690D01*
X69307200Y-86813690D02*
X69354819Y-86956547D01*
X69354819Y-86956547D02*
X69354819Y-87051785D01*
X68354819Y-86289880D02*
X68354819Y-85670833D01*
X68354819Y-85670833D02*
X68735771Y-86004166D01*
X68735771Y-86004166D02*
X68735771Y-85861309D01*
X68735771Y-85861309D02*
X68783390Y-85766071D01*
X68783390Y-85766071D02*
X68831009Y-85718452D01*
X68831009Y-85718452D02*
X68926247Y-85670833D01*
X68926247Y-85670833D02*
X69164342Y-85670833D01*
X69164342Y-85670833D02*
X69259580Y-85718452D01*
X69259580Y-85718452D02*
X69307200Y-85766071D01*
X69307200Y-85766071D02*
X69354819Y-85861309D01*
X69354819Y-85861309D02*
X69354819Y-86147023D01*
X69354819Y-86147023D02*
X69307200Y-86242261D01*
X69307200Y-86242261D02*
X69259580Y-86289880D01*
X78659819Y-57238094D02*
X77659819Y-57238094D01*
X77659819Y-57238094D02*
X77659819Y-56999999D01*
X77659819Y-56999999D02*
X77707438Y-56857142D01*
X77707438Y-56857142D02*
X77802676Y-56761904D01*
X77802676Y-56761904D02*
X77897914Y-56714285D01*
X77897914Y-56714285D02*
X78088390Y-56666666D01*
X78088390Y-56666666D02*
X78231247Y-56666666D01*
X78231247Y-56666666D02*
X78421723Y-56714285D01*
X78421723Y-56714285D02*
X78516961Y-56761904D01*
X78516961Y-56761904D02*
X78612200Y-56857142D01*
X78612200Y-56857142D02*
X78659819Y-56999999D01*
X78659819Y-56999999D02*
X78659819Y-57238094D01*
X78659819Y-55714285D02*
X78659819Y-56285713D01*
X78659819Y-55999999D02*
X77659819Y-55999999D01*
X77659819Y-55999999D02*
X77802676Y-56095237D01*
X77802676Y-56095237D02*
X77897914Y-56190475D01*
X77897914Y-56190475D02*
X77945533Y-56285713D01*
X36333333Y-56584819D02*
X36000000Y-56108628D01*
X35761905Y-56584819D02*
X35761905Y-55584819D01*
X35761905Y-55584819D02*
X36142857Y-55584819D01*
X36142857Y-55584819D02*
X36238095Y-55632438D01*
X36238095Y-55632438D02*
X36285714Y-55680057D01*
X36285714Y-55680057D02*
X36333333Y-55775295D01*
X36333333Y-55775295D02*
X36333333Y-55918152D01*
X36333333Y-55918152D02*
X36285714Y-56013390D01*
X36285714Y-56013390D02*
X36238095Y-56061009D01*
X36238095Y-56061009D02*
X36142857Y-56108628D01*
X36142857Y-56108628D02*
X35761905Y-56108628D01*
X37285714Y-56584819D02*
X36714286Y-56584819D01*
X37000000Y-56584819D02*
X37000000Y-55584819D01*
X37000000Y-55584819D02*
X36904762Y-55727676D01*
X36904762Y-55727676D02*
X36809524Y-55822914D01*
X36809524Y-55822914D02*
X36714286Y-55870533D01*
X36333333Y-63584819D02*
X36000000Y-63108628D01*
X35761905Y-63584819D02*
X35761905Y-62584819D01*
X35761905Y-62584819D02*
X36142857Y-62584819D01*
X36142857Y-62584819D02*
X36238095Y-62632438D01*
X36238095Y-62632438D02*
X36285714Y-62680057D01*
X36285714Y-62680057D02*
X36333333Y-62775295D01*
X36333333Y-62775295D02*
X36333333Y-62918152D01*
X36333333Y-62918152D02*
X36285714Y-63013390D01*
X36285714Y-63013390D02*
X36238095Y-63061009D01*
X36238095Y-63061009D02*
X36142857Y-63108628D01*
X36142857Y-63108628D02*
X35761905Y-63108628D01*
X36714286Y-62680057D02*
X36761905Y-62632438D01*
X36761905Y-62632438D02*
X36857143Y-62584819D01*
X36857143Y-62584819D02*
X37095238Y-62584819D01*
X37095238Y-62584819D02*
X37190476Y-62632438D01*
X37190476Y-62632438D02*
X37238095Y-62680057D01*
X37238095Y-62680057D02*
X37285714Y-62775295D01*
X37285714Y-62775295D02*
X37285714Y-62870533D01*
X37285714Y-62870533D02*
X37238095Y-63013390D01*
X37238095Y-63013390D02*
X36666667Y-63584819D01*
X36666667Y-63584819D02*
X37285714Y-63584819D01*
X69913333Y-59324819D02*
X69580000Y-58848628D01*
X69341905Y-59324819D02*
X69341905Y-58324819D01*
X69341905Y-58324819D02*
X69722857Y-58324819D01*
X69722857Y-58324819D02*
X69818095Y-58372438D01*
X69818095Y-58372438D02*
X69865714Y-58420057D01*
X69865714Y-58420057D02*
X69913333Y-58515295D01*
X69913333Y-58515295D02*
X69913333Y-58658152D01*
X69913333Y-58658152D02*
X69865714Y-58753390D01*
X69865714Y-58753390D02*
X69818095Y-58801009D01*
X69818095Y-58801009D02*
X69722857Y-58848628D01*
X69722857Y-58848628D02*
X69341905Y-58848628D01*
X70246667Y-58324819D02*
X70865714Y-58324819D01*
X70865714Y-58324819D02*
X70532381Y-58705771D01*
X70532381Y-58705771D02*
X70675238Y-58705771D01*
X70675238Y-58705771D02*
X70770476Y-58753390D01*
X70770476Y-58753390D02*
X70818095Y-58801009D01*
X70818095Y-58801009D02*
X70865714Y-58896247D01*
X70865714Y-58896247D02*
X70865714Y-59134342D01*
X70865714Y-59134342D02*
X70818095Y-59229580D01*
X70818095Y-59229580D02*
X70770476Y-59277200D01*
X70770476Y-59277200D02*
X70675238Y-59324819D01*
X70675238Y-59324819D02*
X70389524Y-59324819D01*
X70389524Y-59324819D02*
X70294286Y-59277200D01*
X70294286Y-59277200D02*
X70246667Y-59229580D01*
D12*
X70020000Y-61077500D02*
X87980000Y-61077500D01*
X70020000Y-61077500D02*
X70020000Y-76597500D01*
X87980000Y-76597500D02*
X87980000Y-61077500D01*
X70020000Y-76597500D02*
X87980000Y-76597500D01*
X73900000Y-76782500D02*
X73400000Y-77282500D01*
X74400000Y-77282500D02*
X73900000Y-76782500D01*
X73400000Y-77282500D02*
X74400000Y-77282500D01*
X70020000Y-78577500D02*
X87980000Y-78577500D01*
X70020000Y-78577500D02*
X70020000Y-94097500D01*
X87980000Y-94097500D02*
X87980000Y-78577500D01*
X70020000Y-94097500D02*
X87980000Y-94097500D01*
X73900000Y-94282500D02*
X73400000Y-94782500D01*
X74400000Y-94782500D02*
X73900000Y-94282500D01*
X73400000Y-94782500D02*
X74400000Y-94782500D01*
X85235000Y-54940000D02*
G75*
G02*
X85235000Y-58060000I0J-1560000D01*
G01*
X81375000Y-54540000D02*
X82495000Y-54540000D01*
X82495000Y-54940000D01*
X81375000Y-54940000D01*
X81375000Y-54540000D01*
X81245000Y-55230000D02*
X81375000Y-55230000D01*
X81245000Y-55230000D01*
X81245000Y-57770000D02*
X81375000Y-57770000D01*
X81245000Y-57770000D01*
X81375000Y-54940000D02*
X85235000Y-54940000D01*
X81375000Y-58060000D02*
X81375000Y-54940000D01*
X81375000Y-58060000D02*
X85235000Y-58060000D01*
X32460000Y-58500000D02*
X33230000Y-58500000D01*
X40540000Y-58500000D02*
X39770000Y-58500000D01*
X33230000Y-57130000D02*
X39770000Y-57130000D01*
X39770000Y-59870000D01*
X33230000Y-59870000D01*
X33230000Y-57130000D01*
X33230000Y-64130000D02*
X39770000Y-64130000D01*
X39770000Y-66870000D01*
X33230000Y-66870000D01*
X33230000Y-64130000D01*
X40540000Y-65500000D02*
X39770000Y-65500000D01*
X32460000Y-65500000D02*
X33230000Y-65500000D01*
X66810000Y-55130000D02*
X73350000Y-55130000D01*
X73350000Y-57870000D01*
X66810000Y-57870000D01*
X66810000Y-55130000D01*
X66040000Y-56500000D02*
X66810000Y-56500000D01*
X74120000Y-56500000D02*
X73350000Y-56500000D01*
%LPC*%
D13*
X71360000Y-64392500D03*
X73900000Y-65662500D03*
X71360000Y-66932500D03*
X73900000Y-68202500D03*
X71360000Y-69472500D03*
X73900000Y-70742500D03*
X71360000Y-72012500D03*
D14*
X73900000Y-73282500D03*
D15*
X80250000Y-63122500D03*
X80250000Y-74552500D03*
D13*
X71360000Y-81892500D03*
X73900000Y-83162500D03*
X71360000Y-84432500D03*
X73900000Y-85702500D03*
X71360000Y-86972500D03*
X73900000Y-88242500D03*
X71360000Y-89512500D03*
D14*
X73900000Y-90782500D03*
D15*
X80250000Y-80622500D03*
X80250000Y-92052500D03*
D16*
X80165000Y-55230000D03*
D17*
X80165000Y-57770000D03*
D18*
X31420000Y-58500000D03*
X41580000Y-58500000D03*
X41580000Y-65500000D03*
X31420000Y-65500000D03*
X65000000Y-56500000D03*
X75160000Y-56500000D03*
D19*
X80630000Y-48230000D03*
X80630000Y-50770000D03*
X78090000Y-48230000D03*
X78090000Y-50770000D03*
X75550000Y-48230000D03*
X75550000Y-50770000D03*
X73010000Y-48230000D03*
X73010000Y-50770000D03*
X70470000Y-48230000D03*
X70470000Y-50770000D03*
X67930000Y-48230000D03*
X67930000Y-50770000D03*
X65390000Y-48230000D03*
X65390000Y-50770000D03*
X62850000Y-48230000D03*
X62850000Y-50770000D03*
X60310000Y-48230000D03*
X60310000Y-50770000D03*
X57770000Y-48230000D03*
X57770000Y-50770000D03*
X55230000Y-48230000D03*
X55230000Y-50770000D03*
X52690000Y-48230000D03*
X52690000Y-50770000D03*
X50150000Y-48230000D03*
X50150000Y-50770000D03*
X47610000Y-48230000D03*
X47610000Y-50770000D03*
X45070000Y-48230000D03*
X45070000Y-50770000D03*
X42530000Y-48230000D03*
X42530000Y-50770000D03*
X39990000Y-48230000D03*
X39990000Y-50770000D03*
X37450000Y-48230000D03*
X37450000Y-50770000D03*
X34910000Y-48230000D03*
X34910000Y-50770000D03*
X32370000Y-48230000D03*
D20*
X32370000Y-50770000D03*
D21*
X27500000Y-98500000D03*
X27500000Y-49500000D03*
X85500000Y-49500000D03*
X85500000Y-98500000D03*
%LPD*%
M02*
