M48
; DRILL file KiCad 10.0.6 date 2026-09-30T10:28:50
; FORMAT={-:-/ absolute / metric / decimal}
; #@! TF.CreationDate,2026-09-30T10:28:50-04:00
; #@! TF.GenerationSoftware,Kicad,Pcbnew,10.0.6
; #@! TF.FileFunction,Plated,1,2,PTH
FMAT,2
METRIC
; #@! TA.AperFunction,Plated,PTH,ComponentDrill
T1C0.760
; #@! TA.AperFunction,Plated,PTH,ComponentDrill
T2C0.800
; #@! TA.AperFunction,Plated,PTH,ComponentDrill
T3C0.900
; #@! TA.AperFunction,Plated,PTH,ComponentDrill
T4C1.000
%
G90
G05
T1
X71.36Y-64.392
X71.36Y-66.932
X71.36Y-69.472
X71.36Y-72.013
X71.36Y-81.892
X71.36Y-84.432
X71.36Y-86.972
X71.36Y-89.513
X73.9Y-65.662
X73.9Y-68.203
X73.9Y-70.742
X73.9Y-73.282
X73.9Y-83.162
X73.9Y-85.703
X73.9Y-88.242
X73.9Y-90.782
T2
X31.42Y-58.5
X31.42Y-65.5
X41.58Y-58.5
X41.58Y-65.5
X65.0Y-56.5
X75.16Y-56.5
T3
X80.165Y-55.23
X80.165Y-57.77
T4
X32.37Y-48.23
X32.37Y-50.77
X34.91Y-48.23
X34.91Y-50.77
X37.45Y-48.23
X37.45Y-50.77
X39.99Y-48.23
X39.99Y-50.77
X42.53Y-48.23
X42.53Y-50.77
X45.07Y-48.23
X45.07Y-50.77
X47.61Y-48.23
X47.61Y-50.77
X50.15Y-48.23
X50.15Y-50.77
X52.69Y-48.23
X52.69Y-50.77
X55.23Y-48.23
X55.23Y-50.77
X57.77Y-48.23
X57.77Y-50.77
X60.31Y-48.23
X60.31Y-50.77
X62.85Y-48.23
X62.85Y-50.77
X65.39Y-48.23
X65.39Y-50.77
X67.93Y-48.23
X67.93Y-50.77
X70.47Y-48.23
X70.47Y-50.77
X73.01Y-48.23
X73.01Y-50.77
X75.55Y-48.23
X75.55Y-50.77
X78.09Y-48.23
X78.09Y-50.77
X80.63Y-48.23
X80.63Y-50.77
M30
