G04 #@! TF.GenerationSoftware,KiCad,Pcbnew,10.0.6*
G04 #@! TF.CreationDate,2026-09-30T10:23:56-04:00*
G04 #@! TF.ProjectId,pi-box,70692d62-6f78-42e6-9b69-6361645f7063,rev?*
G04 #@! TF.SameCoordinates,Original*
G04 #@! TF.FileFunction,Soldermask,Bot*
G04 #@! TF.FilePolarity,Negative*
%FSLAX46Y46*%
G04 Gerber Fmt 4.6, Leading zero omitted, Abs format (unit mm)*
G04 Created by KiCad (PCBNEW 10.0.6) date 2026-09-30 10:23:56*
%MOMM*%
%LPD*%
G01*
G04 APERTURE LIST*
%ADD10C,1.500000*%
%ADD11R,1.500000X1.500000*%
%ADD12C,3.200000*%
%ADD13C,1.800000*%
%ADD14R,1.800000X1.800000*%
%ADD15C,1.600000*%
%ADD16C,1.700000*%
%ADD17R,1.700000X1.700000*%
%ADD18C,2.700000*%
G04 APERTURE END LIST*
D10*
X71360000Y-64392500D03*
X73900000Y-65662500D03*
X71360000Y-66932500D03*
X73900000Y-68202500D03*
X71360000Y-69472500D03*
X73900000Y-70742500D03*
X71360000Y-72012500D03*
D11*
X73900000Y-73282500D03*
D12*
X80250000Y-63122500D03*
X80250000Y-74552500D03*
D10*
X71360000Y-81892500D03*
X73900000Y-83162500D03*
X71360000Y-84432500D03*
X73900000Y-85702500D03*
X71360000Y-86972500D03*
X73900000Y-88242500D03*
X71360000Y-89512500D03*
D11*
X73900000Y-90782500D03*
D12*
X80250000Y-80622500D03*
X80250000Y-92052500D03*
D13*
X80165000Y-55230000D03*
D14*
X80165000Y-57770000D03*
D15*
X31420000Y-58500000D03*
X41580000Y-58500000D03*
X41580000Y-65500000D03*
X31420000Y-65500000D03*
X65000000Y-56500000D03*
X75160000Y-56500000D03*
D16*
X80630000Y-48230000D03*
X80630000Y-50770000D03*
X78090000Y-48230000D03*
X78090000Y-50770000D03*
X75550000Y-48230000D03*
X75550000Y-50770000D03*
X73010000Y-48230000D03*
X73010000Y-50770000D03*
X70470000Y-48230000D03*
X70470000Y-50770000D03*
X67930000Y-48230000D03*
X67930000Y-50770000D03*
X65390000Y-48230000D03*
X65390000Y-50770000D03*
X62850000Y-48230000D03*
X62850000Y-50770000D03*
X60310000Y-48230000D03*
X60310000Y-50770000D03*
X57770000Y-48230000D03*
X57770000Y-50770000D03*
X55230000Y-48230000D03*
X55230000Y-50770000D03*
X52690000Y-48230000D03*
X52690000Y-50770000D03*
X50150000Y-48230000D03*
X50150000Y-50770000D03*
X47610000Y-48230000D03*
X47610000Y-50770000D03*
X45070000Y-48230000D03*
X45070000Y-50770000D03*
X42530000Y-48230000D03*
X42530000Y-50770000D03*
X39990000Y-48230000D03*
X39990000Y-50770000D03*
X37450000Y-48230000D03*
X37450000Y-50770000D03*
X34910000Y-48230000D03*
X34910000Y-50770000D03*
X32370000Y-48230000D03*
D17*
X32370000Y-50770000D03*
D18*
X27500000Y-98500000D03*
X27500000Y-49500000D03*
X85500000Y-49500000D03*
X85500000Y-98500000D03*
M02*
